<svg width="351" height="113" viewBox="0 0 351 113" fill="none" xmlns="http://www.w3.org/2000/svg">
<path d="M53.431 40.6938C43.3553 39.8769 33.1336 39.535 23.0324 40.0036C19.1173 40.1852 14.3724 40.373 10.999 42.7344C4.99238 46.939 28.4018 58.7729 30.0544 59.3891C45.7221 65.2313 67.0096 61.2737 78.3981 75.9838C93.1524 95.0414 43.0819 100.298 33.9855 101.581C26.1573 102.685 17.703 103.926 9.79867 102.691C4.21521 101.819 3.90398 98.993 6.43771 93.9889C11.536 83.9199 21.6758 79.6306 32.095 76.9141C47.5901 72.8741 63.226 72.7554 78.7282 76.554C87.5342 78.7117 104.293 82.2676 105.766 68.6017C106.611 60.7567 103.032 52.7646 98.7739 46.4254C97.1237 43.9684 93.1047 37.2198 90.0114 35.9825C89.5495 35.7977 90.4884 36.857 90.7616 37.2728C94.0538 42.2826 97.281 47.3298 100.484 52.3971C106.093 61.2686 111.947 70.0273 117.319 79.0447C117.352 79.1 119.178 83.4066 119.87 83.3659C121.49 83.2706 120.95 77.651 120.95 77.0041C120.95 75.4711 120.498 54.2982 120.77 54.3477C122.916 54.7378 125.777 59.7853 126.952 61.2796C130.227 65.4455 133.354 70.847 137.575 74.1233C139.399 75.5387 140.287 73.8518 140.966 72.2328C143.05 67.2617 144.014 62.0029 146.517 57.1685C147.108 56.0281 147.971 54.2002 149.038 53.3574C149.57 52.9375 151.016 55.9867 151.319 56.3582C153.98 59.6247 158.418 63.5625 162.512 59.8993C165.936 56.836 166.787 50.5041 168.184 46.3954C169.661 42.0467 171.291 37.7802 173.345 33.6718" stroke="black" stroke-width="9" stroke-linecap="round"/>
<path d="M154.98 4.50354C155.343 7.22432 156.173 9.98687 157.14 12.5458C161.886 25.1047 170.423 36.5782 177.336 47.9559C183.777 58.5553 190.354 69.1548 195.581 80.4251C196.79 83.0317 198.324 85.263 197.112 87.6871" stroke="black" stroke-width="9" stroke-linecap="round"/>
<path d="M192 30.7811C192.628 37.4504 203.311 80.8701 214.866 61.9899C219.245 54.8355 220.088 45.7678 220.088 37.563C220.088 36.5419 220.475 33.6156 219.968 34.5021C218.161 37.6644 219.943 47.455 220.148 50.2266C220.958 61.1904 222.269 72.1131 223.809 82.9959C224.695 89.2525 226.166 95.6418 226.63 101.961C227.122 108.666 219.552 108.777 214.506 107.963C213.03 107.725 211.623 107.073 212.886 105.262C218.218 97.6135 228.321 91.2433 235.632 86.2368C251.826 75.1477 268.954 66.0489 286.587 57.4886C301.19 50.3991 308.286 47.5158 322.537 40.2638C365.654 18.3221 310.601 45.9935 345.944 27" stroke="black" stroke-width="9" stroke-linecap="round"/>
</svg>
